<?xml version="1.0" encoding="UTF-8"?>
<svg width="512" height="512" viewBox="0 0 512 512" xmlns="http://www.w3.org/2000/svg" role="img" aria-label="Walktober icon">
  <defs>
    <linearGradient id="g1" x1="0" y1="0" x2="1" y2="1">
      <stop offset="0" stop-color="#FB923C"/>
      <stop offset="1" stop-color="#DC2626"/>
    </linearGradient>
  </defs>
  <rect width="512" height="512" rx="72" fill="url(#g1)"/>
  <!-- Stylized W with leaf veins -->
  <g transform="translate(64,96)">
    <path d="M0,40 L50,290 L120,290 L160,140 L200,290 L270,290 L320,40 L270,40 L235,190 L200,40 L160,40 L120,190 L85,40 Z" fill="#FB923C" opacity="0.85"/>
    <g stroke="#9A3412" stroke-width="4" stroke-linecap="round" opacity="0.6">
      <path d="M120,100 L120,240"/>
      <path d="M120,160 L95,185"/>
      <path d="M120,160 L145,185"/>
      <path d="M200,100 L200,240"/>
      <path d="M200,160 L175,185"/>
      <path d="M200,160 L225,185"/>
    </g>
  </g>
  <!-- Footprint overlay -->
  <g transform="translate(280,120)" fill="#FEF3C7">
    <path d="M40,70 C10,110 10,180 60,210 C110,240 160,180 150,130 C140,80 90,50 40,70 Z"/>
    <circle cx="32" cy="20" r="20"/>
    <circle cx="74" cy="16" r="16"/>
    <circle cx="108" cy="30" r="14"/>
    <circle cx="132" cy="54" r="12"/>
  </g>
</svg>
